<svg id="Layer_2" data-name="Layer 2" xmlns="http://www.w3.org/2000/svg" xmlns:xlink="http://www.w3.org/1999/xlink" viewBox="0 0 1798.51 1799.27"><defs><style>.cls-1{fill:none;stroke:#000;stroke-miterlimit:10;}.cls-2{fill:#196094;}.cls-3{fill:#a7d1e1;}.cls-4{fill:#c58979;}.cls-5{fill:url(#linear-gradient);}</style><linearGradient id="linear-gradient" x1="948.69" y1="1283.67" x2="948.69" gradientUnits="userSpaceOnUse"><stop offset="0" stop-color="#e1ccb5"/><stop offset="0.5" stop-color="#d3a08c"/><stop offset="1" stop-color="#cb8674"/></linearGradient></defs><title>logolarge</title><polygon class="cls-1" points="899.24 1.3 263.75 264.54 0.54 900.03 263.78 1535.51 899.27 1798.73 1534.75 1535.49 1797.97 900 1534.73 264.51 899.24 1.3"/><polygon class="cls-2" points="29.73 868.06 327.56 1238.28 538.43 836.1 838.43 1418.71 671.11 1704.22 263.78 1535.51 0.54 900.03 19.23 854.92 29.73 868.06"/><polygon class="cls-3" points="99.41 661.33 419.48 1062.95 327.56 1238.28 19.23 854.92 99.41 661.33"/><polygon class="cls-4" points="671.11 1704.22 899.27 1798.73 1534.75 1535.49 1797.97 900 1486.25 1238.28 1234.54 900.01 907.99 1549.14 839.98 1417.91 671.11 1704.22"/><polygon class="cls-3" points="1234.54 900.01 1486.25 1238.28 1645.28 1068.59 1354.17 661.33 1234.54 900.01"/><polygon class="cls-3" points="667.38 592.62 538.43 836.1 839.98 1417.91 907.99 1549.14 1042.95 1284.97 667.38 592.62"/><path class="cls-3" d="M830.37,939.23c-17.08-8.28-37.61-5.15-51.92,7.09-4.9,4.19,2.2,11.24,7.07,7.07,11.1-9.5,28.09-11.81,41.1-4.87,13.22,7.05,20.57,21.73,19.41,36.47-.51,6.42,9.5,6.38,10,0C857.48,966.53,847.21,947.4,830.37,939.23Z" transform="translate(-124.75 -123.99)"/><polyline class="cls-5" points="99.41 660.03 419.48 1061.65 538.43 834.8 667.38 591.32 1042.95 1283.67 1354.17 660.03 1645.28 1067.28 1797.97 898.69 1534.73 263.21 899.24 0 263.75 263.24 99.41 660.03"/></svg>